<?xml version="1.0" encoding="UTF-8" standalone="no"?>
<!-- Created with Inkscape (http://www.inkscape.org/) -->
<svg version="1.1" id="svg2" width="85.863327" height="72.338562" viewBox="0 0 85.863327 72.338562" sodipodi:docname="BOTTLES-FIBROLIFE.svg" xml:space="preserve" inkscape:export-filename="../fibrolife/static/images/produtos/fibro-sleep.png " inkscape:export-xdpi="96" inkscape:export-ydpi="96" inkscape:version="1.2 (1:1.2.1+202207142221+cd75a1ee6d)" xmlns:inkscape="http://www.inkscape.org/namespaces/inkscape" xmlns:sodipodi="http://sodipodi.sourceforge.net/DTD/sodipodi-0.dtd" xmlns="http://www.w3.org/2000/svg" xmlns:svg="http://www.w3.org/2000/svg"><defs id="defs6"/><sodipodi:namedview id="namedview4" pagecolor="#ffffff" bordercolor="#999999" borderopacity="1" inkscape:showpageshadow="0" inkscape:pageopacity="0" inkscape:pagecheckerboard="0" inkscape:deskcolor="#d1d1d1" showgrid="false" showguides="true" inkscape:zoom="0.5155987" inkscape:cx="-2797.7185" inkscape:cy="-8.727718" inkscape:window-width="1262" inkscape:window-height="946" inkscape:window-x="-92" inkscape:window-y="97" inkscape:window-maximized="0" inkscape:current-layer="g8" inkscape:lockguides="false"/><g inkscape:groupmode="layer" inkscape:label="Image" id="g8" transform="translate(-217.31688,-338.89618)"><path style="fill:#7e22ce;fill-opacity:1;stroke-width:0.671928" d="m 252.05099,386.98652 -0.1922,-24.24822 -1.8852,-1.62101 c -2.6668,-2.29298 -6.3114,-2.24109 -7.2024,0.10255 -1.1528,3.03206 -0.7763,11.82472 0.6885,16.08253 1.6985,4.93653 1.6995,8.14356 0,10.92497 -4.4224,7.25333 -16.6762,6.28793 -22.5302,-1.77502 -3.346,-4.60847 -3.8003,-7.11008 -3.5577,-19.58912 0.1821,-9.36489 0.4179,-11.47157 1.5367,-13.72796 1.9084,-3.849 5.733,-7.38604 9.5073,-8.79241 1.8049,-0.67253 4.2578,-2.05873 5.451,-3.08045 7.4471,-6.37699 18.5078,1.21568 14.52,9.96738 -0.6403,1.40531 -1.2597,2.71813 -1.3764,2.91737 -0.1167,0.19923 1.132,0.72174 2.7748,1.16114 2.1317,0.57014 3.5292,1.5094 4.8803,3.28013 l 1.8932,2.48123 0.1914,25.08255 0.1913,25.08256 h -2.3509 -2.3509 z m -14.1015,0.0402 c 1.5969,-1.48772 2.5326,-4.19513 1.8382,-5.31864 -0.2413,-0.39056 -1.7816,-0.71012 -3.4229,-0.71012 h -2.984 v -2.68771 c 0,-2.5384 0.112,-2.68772 2.0158,-2.68772 1.5392,0 2.0158,-0.30473 2.0158,-1.28889 0,-2.56975 -0.7659,-3.4146 -3.0956,-3.4146 -2.2119,0 -2.2798,-0.0801 -2.2798,-2.68771 0,-2.60758 0.068,-2.68772 2.2798,-2.68772 2.3297,0 3.0956,-0.84485 3.0956,-3.41459 0,-0.98416 -0.4766,-1.2889 -2.0158,-1.2889 -1.9038,0 -2.0158,-0.14932 -2.0158,-2.68772 0,-2.63697 0.046,-2.68771 2.4143,-2.68771 h 2.4143 l -3.2542,-3.58475 c -3.6155,-3.98273 -4.1832,-4.05487 -7.8867,-1.00213 -4.4243,3.64685 -4.7745,4.91972 -4.7745,17.35352 0,12.40232 0.3877,13.82675 4.7029,17.27682 3.9136,3.1291 8.536,3.76998 10.9526,1.51856 z m 5.3759,-36.39991 c 0.8912,-0.89121 1.0631,-3.81774 0.292,-4.97247 -1.1031,-1.65219 -3.3807,-2.3178 -5.1587,-1.50766 -2.3619,1.07617 -2.1525,2.73436 0.6569,5.20105 2.6409,2.31875 3.0468,2.44206 4.2098,1.27908 z m 20.4368,35.52536 0.1914,-25.08256 1.8932,-2.48123 c 1.3511,-1.77073 2.7485,-2.70998 4.8802,-3.28012 1.6429,-0.4394 2.8916,-0.96191 2.7749,-1.16115 -0.1167,-0.19923 -0.7361,-1.51205 -1.3765,-2.91737 -3.9877,-8.75169 7.073,-16.34437 14.5201,-9.96737 1.1932,1.02172 3.6461,2.40792 5.451,3.08045 3.7743,1.40637 7.5989,4.94341 9.5073,8.7924 1.1188,2.2564 1.3546,4.36307 1.5367,13.72797 0.1333,6.85806 -0.074,12.09326 -0.545,13.77452 -3.3938,12.10951 -19.8127,16.98808 -25.543,7.58962 -1.6958,-2.78141 -1.6948,-5.98845 0,-10.92497 1.4649,-4.25781 1.8414,-13.05047 0.6886,-16.08254 -0.8911,-2.34363 -4.5356,-2.39552 -7.2024,-0.10255 l -1.8853,1.62102 -0.1922,24.24822 -0.1922,24.24822 h -2.3509 -2.3509 z m 29.3765,-0.33703 c 4.6879,-3.78869 5.0832,-5.15602 5.0832,-17.58381 0,-12.4338 -0.3502,-13.70667 -4.7745,-17.35352 -3.7035,-3.05274 -4.2712,-2.9806 -7.8867,1.00213 l -3.2542,3.58475 h 2.4143 c 2.3687,0 2.4143,0.0507 2.4143,2.68771 0,2.5384 -0.112,2.68772 -2.0158,2.68772 -1.5392,0 -2.0158,0.30474 -2.0158,1.2889 0,2.56974 0.7659,3.41459 3.0956,3.41459 2.2119,0 2.2798,0.0801 2.2798,2.68772 0,2.60757 -0.068,2.68771 -2.2798,2.68771 -2.3297,0 -3.0956,0.84485 -3.0956,3.4146 0,0.98416 0.4766,1.28889 2.0158,1.28889 1.9038,0 2.0158,0.14932 2.0158,2.68772 v 2.68771 h -2.984 c -1.6412,0 -3.1816,0.31956 -3.4229,0.71012 -0.699,1.13098 0.2446,3.83196 1.8795,5.37993 2.1332,2.01975 7.2172,1.40524 10.531,-1.27287 z m -11.7384,-36.46741 c 2.8094,-2.46669 3.0189,-4.12488 0.6569,-5.20105 -1.778,-0.81014 -4.0555,-0.14453 -5.1587,1.50766 -1.2212,1.82885 -0.119,5.77878 1.6125,5.77878 0.2828,0 1.583,-0.93843 2.8893,-2.08539 z" id="path41556-6-7"/></g></svg>