<?xml version="1.0" encoding="UTF-8" standalone="no"?>
<!-- Created with Inkscape (http://www.inkscape.org/) -->
<svg version="1.1" id="svg2" width="78.66806" height="78.66806" viewBox="0 0 78.66806 78.66806" sodipodi:docname="BOTTLES-FIBROLIFE.svg" xml:space="preserve" inkscape:export-filename="../fibrolife/static/images/produtos/fibro-sleep.png " inkscape:export-xdpi="96" inkscape:export-ydpi="96" inkscape:version="1.2 (1:1.2.1+202207142221+cd75a1ee6d)" xmlns:inkscape="http://www.inkscape.org/namespaces/inkscape" xmlns:sodipodi="http://sodipodi.sourceforge.net/DTD/sodipodi-0.dtd" xmlns="http://www.w3.org/2000/svg" xmlns:svg="http://www.w3.org/2000/svg"><defs id="defs6"/><sodipodi:namedview id="namedview4" pagecolor="#ffffff" bordercolor="#999999" borderopacity="1" inkscape:showpageshadow="0" inkscape:pageopacity="0" inkscape:pagecheckerboard="0" inkscape:deskcolor="#d1d1d1" showgrid="false" showguides="true" inkscape:zoom="0.5155987" inkscape:cx="-2797.7185" inkscape:cy="-8.727718" inkscape:window-width="1262" inkscape:window-height="946" inkscape:window-x="-92" inkscape:window-y="97" inkscape:window-maximized="0" inkscape:current-layer="g8" inkscape:lockguides="false"/><g inkscape:groupmode="layer" inkscape:label="Image" id="g8" transform="translate(-2.9258165,-311.12296)"><path style="fill:#7e22ce;fill-opacity:1;stroke-width:0.614594" d="m 8.9065766,383.78774 c -3.28942,-3.30181 -5.98076,-6.26879 -5.98076,-6.59329 0,-0.3245 2.07786,-2.68012 4.61746,-5.2347 l 4.6174604,-4.6447 -1.24096,-2.56849 c -4.8769304,-10.09409 -3.7323304,-23.82547 2.80729,-33.67781 9.0482,-13.6317 28.25523,-18.98988 42.82979,-11.94822 l 2.56104,1.23736 4.64469,-4.61746 c 2.55459,-2.5396 4.92034,-4.61746 5.25724,-4.61746 0.7842,0 12.57405,11.81097 12.57405,12.59659 0,0.3245 -2.07786,2.68011 -4.61746,5.2347 l -4.61746,4.64469 1.24096,2.56849 c 3.43189,7.1032 3.95107,18.27873 1.19206,25.65955 -2.79824,7.48579 -7.86428,13.89039 -14.10201,17.8281 -9.46316,5.97383 -22.95384,6.86032 -32.70496,2.14909 l -2.58321,-1.24807 -4.6447,4.61746 c -2.55458,2.5396 -4.92033,4.61746 -5.25723,4.61746 -0.33689,0 -3.30387,-2.70148 -6.5932904,-6.00329 z M 34.278997,371.35225 c 4.80172,-0.001 7.67313,-1.27287 9.71162,-4.3012 2.62912,-3.90575 0.80066,-9.05554 -3.93613,-11.08597 -2.00566,-0.85972 -2.74524,-1.59732 -3.30633,-3.29742 -1.4852,-4.50019 -7.22153,-6.54032 -11.08236,-3.94143 -3.0325,2.0413 -4.30005,4.90874 -4.3012,9.7301 l -0.001,4.00447 -7.37272,7.35351 -7.3727004,7.3535 4.4412404,4.47109 4.44125,4.47109 7.39614,-7.3784 7.39615,-7.37839 3.98599,-0.001 z m -20.08869,10.70302 c -0.45166,-1.17699 8.73316,-10.70207 10.31978,-10.70207 2.39787,0 1.44695,1.88531 -3.36579,6.67305 -5.11588,5.0893 -6.2868,5.76771 -6.95399,4.02902 z m 12.27561,-12.33428 c -0.25115,-0.65448 0.12154,-1.43224 1.04442,-2.17954 1.28186,-1.038 1.53423,-1.0626 2.36613,-0.2307 0.8319,0.8319 0.81073,1.06436 -0.19849,2.17954 -1.36839,1.51205 -2.6841,1.60655 -3.21206,0.2307 z m -1.41471,-15.48117 c 0,-1.65231 2.19475,-3.37309 4.30216,-3.37309 1.93815,0 4.30216,1.68464 4.30216,3.0658 0,0.98163 -2.54595,1.10781 -3.48124,0.17253 -0.46241,-0.46241 -0.93586,-0.37235 -1.6155,0.30729 -1.35268,1.35267 -3.50758,1.24668 -3.50758,-0.17253 z m 24.86553,26.62043 c 8.64323,-2.25128 16.26992,-8.3652 20.17689,-16.17478 2.81133,-5.61952 3.74541,-10.19532 3.34364,-16.37955 -0.30114,-4.63527 -2.4167,-11.98458 -3.44986,-11.98458 -0.25049,0 -1.16352,0.76056 -2.02893,1.69013 -1.28439,1.3796 -1.63699,2.50033 -1.91914,6.09984 -0.19012,2.42534 -0.75366,5.19101 -1.25231,6.14594 -2.21347,4.23882 -7.04276,6.78544 -11.45423,6.04013 -3.11787,-0.52676 -6.95341,-3.31373 -7.98372,-5.80111 -0.50064,-1.20867 -1.70608,-2.4066 -3.17653,-3.15677 -3.6042,-1.83873 -5.75596,-5.52594 -5.73115,-9.82082 0.0377,-6.52881 4.3328,-10.35908 12.20517,-10.88433 3.60911,-0.24079 4.66253,-0.56601 6.05881,-1.87047 0.92957,-0.86845 1.69013,-1.78395 1.69013,-2.03444 0,-1.03316 -7.34931,-3.14872 -11.98458,-3.44986 -6.19788,-0.40266 -10.75586,0.53182 -16.44813,3.37222 -5.80013,2.89421 -10.61395,7.70803 -13.50816,13.50816 -2.84039,5.69226 -3.77487,10.25025 -3.37221,16.44812 0.30114,4.63527 2.4167,11.98459 3.44985,11.98459 0.2505,0 1.166,-0.76056 2.03445,-1.69014 1.30445,-1.39627 1.62967,-2.4497 1.87047,-6.05881 0.34479,-5.16769 1.94611,-8.45689 5.20394,-10.68919 4.84132,-3.31732 12.89151,-1.18593 15.4016,4.07776 0.64131,1.34486 1.9366,2.64442 3.35897,3.37006 5.40352,2.75667 7.5039,10.59413 4.15065,15.48789 -2.22257,3.24363 -5.51814,4.84506 -10.67923,5.18941 -3.60911,0.2408 -4.66254,0.56602 -6.05881,1.87047 -0.92958,0.86845 -1.69014,1.78094 -1.69014,2.02777 0,0.50759 4.43176,2.29123 7.49566,3.01676 3.45204,0.81744 10.50831,0.65239 14.2969,-0.3344 z m 8.99991,-28.72536 c 2.9642,-1.98021 4.2373,-4.88142 4.23845,-9.65874 l 0.001,-3.98598 7.37838,-7.39615 7.3784,-7.39615 -4.47109,-4.44125 -4.47109,-4.44124 -7.3535,7.37271 -7.35351,7.37271 -4.00447,0.001 c -4.82136,10e-4 -7.6888,1.26868 -9.7301,4.30118 -2.58878,3.84581 -0.56048,9.59659 3.90446,11.07015 1.65049,0.54471 2.47289,1.36912 3.52357,3.53217 2.31651,4.76902 6.97762,6.3297 10.95955,3.6696 z m -4.97951,-2.16541 c -1.44344,-0.4501 -3.07297,-2.07157 -3.07297,-3.05778 0,-0.71414 0.56238,-0.81209 2.76567,-0.48168 1.80103,0.27008 2.76567,0.18723 2.76567,-0.23752 0,-0.35874 0.69142,-0.65225 1.53649,-0.65225 1.08373,0 1.53648,0.33414 1.53648,1.13393 0,2.01155 -3.31494,3.98642 -5.53134,3.2953 z m 0.60015,-16.43121 c -0.67943,-0.81867 -0.60473,-1.17307 0.47479,-2.25259 0.78073,-0.78074 1.67886,-1.12843 2.29957,-0.89024 1.31797,0.50575 0.97489,2.16378 -0.67386,3.25655 -1.12317,0.74443 -1.40077,0.7294 -2.1005,-0.11372 z m 3.96953,-4.65643 c -0.48044,-0.77736 9.41426,-10.99833 10.64725,-10.99833 0.4406,0 0.96949,0.43885 1.17532,0.97521 0.25732,0.67056 -1.1362,2.49456 -4.46068,5.83865 -4.61727,4.64451 -6.43798,5.6794 -7.36189,4.18447 z" id="path45305-2"/></g></svg>