<?xml version="1.0" encoding="UTF-8" standalone="no"?>
<!-- Created with Inkscape (http://www.inkscape.org/) -->

<svg
   version="1.1"
   id="svg2"
   width="70.533821"
   height="92.855774"
   viewBox="0 0 70.533821 92.855774"
   sodipodi:docname="BOTTLES-FIBROLIFE.svg"
   xml:space="preserve"
   inkscape:export-filename="../fibrolife/static/images/produtos/fibro-sleep.png "
   inkscape:export-xdpi="96"
   inkscape:export-ydpi="96"
   inkscape:version="1.2 (1:1.2.1+202207142221+cd75a1ee6d)"
   xmlns:inkscape="http://www.inkscape.org/namespaces/inkscape"
   xmlns:sodipodi="http://sodipodi.sourceforge.net/DTD/sodipodi-0.dtd"
   xmlns="http://www.w3.org/2000/svg"
   xmlns:svg="http://www.w3.org/2000/svg"><defs
     id="defs6" /><sodipodi:namedview
     id="namedview4"
     pagecolor="#ffffff"
     bordercolor="#999999"
     borderopacity="1"
     inkscape:showpageshadow="0"
     inkscape:pageopacity="0"
     inkscape:pagecheckerboard="0"
     inkscape:deskcolor="#d1d1d1"
     showgrid="false"
     showguides="true"
     inkscape:zoom="0.5155987"
     inkscape:cx="-2797.7185"
     inkscape:cy="-8.727718"
     inkscape:window-width="1262"
     inkscape:window-height="946"
     inkscape:window-x="-92"
     inkscape:window-y="97"
     inkscape:window-maximized="0"
     inkscape:current-layer="g8"
     inkscape:lockguides="false" /><g
     inkscape:groupmode="layer"
     inkscape:label="Image"
     id="g8"
     transform="translate(-99.438591,-304.02911)"><path
       style="fill:#7e22ce;fill-opacity:1;stroke-width:0.726185"
       d="m 120.60743,396.07745 c -3.0233,-1.05031 -7.4425,-5.4527 -8.4069,-8.37486 -0.6047,-1.8324 -1.5096,-2.72013 -3.6423,-3.57347 -1.5606,-0.62446 -2.8376,-1.59008 -2.8376,-2.14582 0,-1.2253 1.4853,-1.29517 3.9229,-0.18454 1.6182,0.73731 2.0147,0.5857 3.6969,-1.41356 2.0017,-2.37878 4.21,-3.44748 5.4896,-2.65663 0.4635,0.28641 -0.43,1.59491 -2.2127,3.2407 l -2.99,2.76034 1.1577,2.77062 c 2.3163,5.54366 5.956,7.89038 11.423,7.36506 5.6909,-0.54682 10.0124,-5.66214 10.0124,-11.85161 0,-2.70668 -1.6394,-6.95117 -3.178,-8.22812 -1.2009,-0.99666 -5.9931,0.17944 -8.6077,2.11249 -1.1613,0.85858 -2.6237,1.36448 -3.2498,1.12424 -1.0002,-0.38381 -0.9721,-0.62363 0.2314,-1.9766 1.6479,-1.8526 6.5491,-4.20136 8.8131,-4.22346 l 1.6339,-0.016 -0.001,-14.70525 c 0,-16.09472 -0.5675,-18.7825 -4.356,-20.67548 -2.3078,-1.15313 -6.6369,-1.18214 -9.0976,-0.061 -3.1842,1.45081 -5.5084,7.84667 -2.8514,7.84667 2.1266,0 4.6872,3.387 4.6872,6.20008 0,3.28933 -1.3825,3.05424 -2.5548,-0.43444 -1.1025,-3.28081 -3.8085,-4.34289 -6.5269,-2.56172 -2.3559,1.54359 -4.2544,5.8093 -3.6526,8.20689 0.3952,1.57462 0.6934,1.70344 2.776,1.19918 3.5734,-0.86521 7.2461,-0.73002 7.5907,0.27941 0.3631,1.06364 -0.4037,1.36186 -5.1324,1.99616 -4.3512,0.58367 -8.7989,4.29571 -10.0165,8.35985 -0.8714,2.90822 -0.3327,9.08718 0.8561,9.82195 1.1261,0.69592 0.7789,3.2419 -0.4421,3.2419 -1.1732,0 -2.7067,-3.0395 -3.5661,-7.06821 -0.677,-3.17342 1.2433,-9.46423 3.6866,-12.07732 1.7048,-1.8232 1.9544,-2.7082 2.0201,-7.16381 0.074,-5.00661 0.1204,-5.12386 3.0671,-7.73833 1.7076,-1.51509 3.1987,-3.59604 3.4736,-4.84757 2.1689,-9.875 14.9865,-12.3823 20.5703,-4.02385 1.591,2.38155 1.6484,3.0329 1.6484,18.69927 0,10.33707 0.2637,16.23178 0.7262,16.23178 0.4624,0 0.7261,-5.89471 0.7261,-16.23178 0,-15.66637 0.057,-16.31772 1.6484,-18.69927 5.5838,-8.35845 18.4014,-5.85115 20.5703,4.02385 0.2749,1.25153 1.766,3.33248 3.4737,4.84757 2.9466,2.61447 2.9931,2.73172 3.067,7.73833 0.066,4.45561 0.3153,5.34061 2.0201,7.16381 2.9591,3.16478 4.4101,8.92216 3.356,13.3163 -1.0842,4.51952 -2.4736,6.52554 -3.6896,5.32698 -0.6859,-0.67603 -0.6172,-1.41498 0.3142,-3.37759 3.5216,-7.42138 -1.3652,-16.45906 -9.4885,-17.54774 -4.7011,-0.63005 -5.4692,-0.92972 -5.1065,-1.99228 0.3446,-1.00943 4.0173,-1.14462 7.5907,-0.27941 2.0826,0.50426 2.3808,0.37544 2.776,-1.19918 0.6018,-2.39759 -1.2967,-6.6633 -3.6525,-8.20689 -2.7184,-1.78117 -5.4245,-0.71909 -6.527,2.56172 -1.1723,3.48868 -2.5547,3.72377 -2.5547,0.43444 0,-2.81308 2.5605,-6.20008 4.6872,-6.20008 2.6569,0 0.3327,-6.39586 -2.8515,-7.84667 -2.4607,-1.12116 -6.7898,-1.09215 -9.0976,0.061 -3.7885,1.89298 -4.3547,4.58076 -4.356,20.67548 l -10e-4,14.70525 1.6339,0.016 c 2.264,0.0221 7.1652,2.37086 8.8131,4.22346 1.2035,1.35297 1.2316,1.59279 0.2314,1.9766 -0.6261,0.24024 -2.0885,-0.26566 -3.2497,-1.12424 -2.0294,-1.50035 -7.4086,-3.17532 -8.0709,-2.51306 -0.1759,0.17594 0.017,1.05892 0.4284,1.96217 0.4865,1.06775 1.8615,1.94889 3.9304,2.51873 5.9822,1.64766 11.4158,6.41976 9.4958,8.33975 -0.584,0.58399 -1.384,0.17714 -2.9518,-1.50127 -1.966,-2.10456 -6.22,-4.45771 -8.0587,-4.45771 -0.4122,0 -0.7495,0.80554 -0.7495,1.79008 0,0.98455 -0.5183,3.31657 -1.1517,5.18228 -1.1011,3.24323 -1.0878,3.45604 0.3025,4.84636 1.9481,1.94806 7.8551,2.52396 10.7157,1.04471 2.7878,-1.44162 4.3483,-3.23258 5.7594,-6.60989 l 1.1577,-2.77062 -2.99,-2.76034 c -1.7827,-1.64579 -2.6761,-2.95428 -2.2127,-3.2407 1.2796,-0.79085 3.4879,0.27785 5.4896,2.65663 1.6822,1.99926 2.0788,2.15087 3.697,1.41356 2.4375,-1.11063 3.9228,-1.04075 3.9228,0.18455 0,0.55573 -1.2769,1.52135 -2.8376,2.14582 -2.1327,0.85333 -3.0375,1.74106 -3.6423,3.57346 -0.4425,1.34094 -2.0249,3.59985 -3.5165,5.01979 -4.783,4.55345 -10.1256,5.3822 -15.675,2.43154 l -3.376,-1.79503 -3.376,1.79503 c -3.5632,1.89457 -7.1142,2.19866 -10.7846,0.92353 z m -2.8915,-8.54758 c -0.5427,-0.8781 1.1996,-4.33415 3.0118,-5.97414 1.8588,-1.6822 7.5088,-4.17838 9.5017,-4.19783 2.3403,-0.0229 2.0547,2.03379 -0.3631,2.61491 -3.8699,0.93012 -7.5546,3.2841 -9.015,5.75926 -1.5091,2.5577 -2.3631,3.0474 -3.1354,1.7978 z m -13.7095,-16.50127 c -1.695,-1.69506 0.6047,-7.4717 3.4997,-8.79076 2.7311,-1.24438 3.3934,0.81428 0.8943,2.78003 -1.0131,0.79695 -2.0557,2.42162 -2.3168,3.61038 -0.4975,2.2651 -1.2931,3.18444 -2.0772,2.40035 z m 59.8077,-1.31518 c -0.3987,-1.04854 -0.7248,-2.18822 -0.7248,-2.53263 0,-0.34442 -0.8541,-1.29799 -1.8979,-2.11906 -2.5452,-2.00209 -1.927,-4.08397 0.8386,-2.82389 2.1628,0.98545 3.964,4.0181 3.964,6.67406 0,2.57097 -1.3223,3.05717 -2.1799,0.80152 z m -38.7134,-1.55469 c -0.2746,-0.27459 -0.4993,-1.45745 -0.4993,-2.62858 0,-2.36863 -1.9864,-7.06902 -2.9874,-7.06902 -0.3539,0 -0.6435,-0.65357 -0.6435,-1.45237 0,-1.9934 1.1813,-1.81976 3.32,0.48804 1.9563,2.11078 2.6694,4.18632 2.7807,8.09243 0.068,2.39979 -0.8902,3.64976 -1.9705,2.5695 z m 17.2995,-0.24551 c -0.7709,-1.24737 0.368,-6.67774 1.9443,-9.27054 0.7891,-1.29806 1.5448,-2.36011 1.6793,-2.36011 0.1344,0 0.7613,-0.19835 1.3931,-0.44078 0.8234,-0.316 1.1487,-0.008 1.1487,1.08927 0,0.84154 -0.2482,1.53007 -0.5515,1.53007 -1.0488,0 -2.5076,3.14179 -2.9745,6.40597 -0.4597,3.21392 -1.6714,4.61233 -2.6394,3.04612 z m -26.1782,-26.20011 c -1.24,-2.00648 4.4372,-5.29463 8.4749,-4.90843 3.8671,0.36989 3.1986,2.32601 -0.9583,2.80403 -1.8725,0.21533 -4.0223,0.95059 -4.7774,1.63392 -1.5969,1.44515 -2.085,1.52898 -2.7392,0.47048 z m 34.3295,-0.45809 c -0.6837,-0.68365 -2.799,-1.42183 -4.7008,-1.6404 -4.5057,-0.51786 -4.8762,-2.47153 -0.5293,-2.79154 3.1691,-0.23331 7.9644,2.28221 7.9644,4.17801 0,1.51952 -1.3439,1.64432 -2.7343,0.25393 z m -18.5346,-7.81165 c -1.083,-1.7777 -2.8876,-3.6229 -4.0103,-4.10043 -4.6582,-1.98139 -7.8368,-9.5085 -6.3489,-15.03437 1.5434,-5.73164 7.3436,-10.27945 13.1103,-10.27945 3.4614,0 8.0069,2.18568 10.3591,4.98109 2.2772,2.70631 3.9098,7.87747 2.8284,8.95887 -1.0977,1.09771 -2.0819,0.0984 -2.5945,-2.63429 -1.8331,-9.77128 -15.7151,-11.56294 -20.2138,-2.60887 -2.6037,5.18245 -0.6303,11.51752 4.4832,14.39145 1.4736,0.82819 3.1242,2.33724 3.668,3.35344 0.5439,1.01621 1.2052,1.84765 1.4696,1.84765 0.2645,0 0.9258,-0.83144 1.4696,-1.84765 0.5439,-1.0162 2.1808,-2.51753 3.6375,-3.33628 1.4568,-0.81875 3.2096,-2.43819 3.8952,-3.59875 1.356,-2.29551 3.3429,-2.83509 3.3429,-0.90783 0,1.80205 -3.2652,5.72881 -5.5837,6.71499 -1.1227,0.47753 -2.9273,2.32273 -4.0103,4.10043 -1.083,1.77771 -2.321,3.2322 -2.7512,3.2322 -0.4301,0 -1.6681,-1.45449 -2.7511,-3.2322 z m 1.2988,-8.74986 c 0,-1.13094 -0.6655,-1.34416 -3.4772,-1.11405 -1.4426,0.11806 -1.5998,-0.11087 -1.1918,-1.73624 0.3589,-1.43017 0.076,-2.19142 -1.1995,-3.22403 l -1.6694,-1.35181 1.612,-0.86273 c 1.1591,-0.62034 1.555,-1.41342 1.4089,-2.82261 -0.1762,-1.69952 0.035,-1.93305 1.5938,-1.75799 1.1746,0.13197 2.2435,-0.371 3.0863,-1.45237 l 1.2892,-1.65425 1.2893,1.65425 c 0.8428,1.08137 1.9116,1.58434 3.0863,1.45237 1.5583,-0.17506 1.77,0.0585 1.5938,1.75799 -0.1461,1.40919 0.2497,2.20227 1.4088,2.82261 l 1.6121,0.86273 -1.6694,1.35181 c -1.2752,1.03261 -1.5585,1.79386 -1.1995,3.22403 0.4079,1.62537 0.2508,1.8543 -1.1918,1.73624 -2.8117,-0.23011 -3.4772,-0.0169 -3.4772,1.11405 0,0.60515 -0.6455,1.08928 -1.4524,1.08928 -0.8068,0 -1.4523,-0.48413 -1.4523,-1.08928 z m 3.7553,-4.46966 c 2.6369,-2.38635 1.2408,-6.06003 -2.303,-6.06003 -3.4873,0 -4.8303,3.28057 -2.4291,5.93385 1.4913,1.64785 3.006,1.68824 4.7321,0.12618 z"
       id="path36424-9-3" /></g></svg>
