<?xml version="1.0" encoding="UTF-8" standalone="no"?>
<!-- Created with Inkscape (http://www.inkscape.org/) -->
<svg version="1.1" id="svg2" width="40.730515" height="74.941498" viewBox="0 0 40.730515 74.941498" sodipodi:docname="BOTTLES-FIBROLIFE.svg" xml:space="preserve" inkscape:export-filename="../fibrolife/static/images/produtos/fibro-sleep.png " inkscape:export-xdpi="96" inkscape:export-ydpi="96" inkscape:version="1.2 (1:1.2.1+202207142221+cd75a1ee6d)" xmlns:inkscape="http://www.inkscape.org/namespaces/inkscape" xmlns:sodipodi="http://sodipodi.sourceforge.net/DTD/sodipodi-0.dtd" xmlns="http://www.w3.org/2000/svg" xmlns:svg="http://www.w3.org/2000/svg"><defs id="defs6"/><sodipodi:namedview id="namedview4" pagecolor="#ffffff" bordercolor="#999999" borderopacity="1" inkscape:showpageshadow="0" inkscape:pageopacity="0" inkscape:pagecheckerboard="0" inkscape:deskcolor="#d1d1d1" showgrid="false" showguides="true" inkscape:zoom="0.5155987" inkscape:cx="-2797.7185" inkscape:cy="-8.727718" inkscape:window-width="1262" inkscape:window-height="946" inkscape:window-x="-92" inkscape:window-y="97" inkscape:window-maximized="0" inkscape:current-layer="g8" inkscape:lockguides="false"/><g inkscape:groupmode="layer" inkscape:label="Image" id="g8" transform="translate(-174.9462,-463.28513)"><path style="fill:#7e22ce;fill-opacity:1;stroke-width:0.48581" d="m 185.17908,536.96691 c -0.7642,-1.09117 -0.9119,-3.59359 -0.9119,-15.45573 v -14.15377 l -3.8061,-0.24236 c -2.0934,-0.13329 -4.1364,-0.57229 -4.5401,-0.97556 -0.5522,-0.5517 -0.7756,-5.65125 -0.9024,-20.60006 -0.1639,-19.32428 -0.1359,-19.89946 1.0252,-21.06057 1.1408,-1.14084 1.8793,-1.19372 16.6697,-1.19372 8.5119,0 15.9004,0.16282 16.419,0.36183 2.2843,0.87656 2.1658,2.21076 -1.1409,12.84827 -1.7716,5.69892 -3.221,10.72573 -3.221,11.17071 0,0.62057 1.0886,0.80904 4.673,0.80904 4.2989,0 4.7474,0.11366 5.6033,1.41989 0.8541,1.30355 0.8483,1.57953 -0.071,3.36841 -2.3625,4.59677 -24.4851,43.04842 -25.3035,43.98042 -1.2435,1.41612 -3.4005,1.28324 -4.4932,-0.2768 z m 13.952,-28.19722 c 4.3905,-7.68636 7.9827,-14.07901 7.9827,-14.2059 0,-0.12689 -1.9244,-0.2307 -4.2764,-0.2307 -4.5572,0 -5.6824,-0.53655 -5.6824,-2.70971 0,-1.03547 4.8967,-17.53551 6.2525,-21.06877 0.2657,-0.69245 -1.4879,-0.82555 -10.8763,-0.82555 h -11.193 v 15.52397 15.52398 h 3.6151 c 5.7554,0 5.7578,0.005 5.7578,12.19754 0,5.64219 0.098,10.14868 0.2186,10.01444 0.1203,-0.13425 3.8109,-6.53293 8.2014,-14.2193 z" id="path23892-4-6"/></g></svg>