<?xml version="1.0" encoding="UTF-8" standalone="no"?>
<!-- Created with Inkscape (http://www.inkscape.org/) -->

<svg
   version="1.1"
   id="svg2"
   width="68.813477"
   height="66.430069"
   viewBox="0 0 68.813477 66.430069"
   sodipodi:docname="BOTTLES-FIBROLIFE.svg"
   xml:space="preserve"
   inkscape:export-filename="../fibrolife/static/images/produtos/fibro-sleep.png "
   inkscape:export-xdpi="96"
   inkscape:export-ydpi="96"
   inkscape:version="1.2 (1:1.2.1+202207142221+cd75a1ee6d)"
   xmlns:inkscape="http://www.inkscape.org/namespaces/inkscape"
   xmlns:sodipodi="http://sodipodi.sourceforge.net/DTD/sodipodi-0.dtd"
   xmlns="http://www.w3.org/2000/svg"
   xmlns:svg="http://www.w3.org/2000/svg"><defs
     id="defs6" /><sodipodi:namedview
     id="namedview4"
     pagecolor="#ffffff"
     bordercolor="#999999"
     borderopacity="1"
     inkscape:showpageshadow="0"
     inkscape:pageopacity="0"
     inkscape:pagecheckerboard="0"
     inkscape:deskcolor="#d1d1d1"
     showgrid="false"
     showguides="true"
     inkscape:zoom="0.5155987"
     inkscape:cx="-2797.7185"
     inkscape:cy="-8.727718"
     inkscape:window-width="1262"
     inkscape:window-height="946"
     inkscape:window-x="-92"
     inkscape:window-y="97"
     inkscape:window-maximized="0"
     inkscape:current-layer="g8"
     inkscape:lockguides="false" /><g
     inkscape:groupmode="layer"
     inkscape:label="Image"
     id="g8"
     transform="translate(-154.42049,-230.04619)"><path
       style="fill:#7e22ce;fill-opacity:1;stroke-width:0.529357"
       d="m 181.33644,295.7048 c -18.1509,-3.832 -30.1874,-21.96956 -26.1262,-39.36912 4.2079,-18.02803 22.1886,-29.32611 40.6931,-25.56933 18.5025,3.75637 30.6083,21.72784 26.5438,39.4052 -4.1472,18.03718 -22.5318,29.45561 -41.1107,25.53325 z m 14.76,-2.89827 c 10.8961,-2.20034 20.8528,-11.85132 23.4515,-22.73135 0.8556,-3.58222 0.8571,-10.05069 0,-13.64313 -0.8185,-3.44338 -3.8156,-9.45539 -5.9324,-11.90002 l -1.576,-1.82015 -5.9034,5.66432 c -4.131,3.96376 -6.1607,5.56898 -6.7607,5.34677 -0.4716,-0.17465 -0.8574,-0.6136 -0.8574,-0.97543 0,-0.36184 2.6066,-3.18841 5.7925,-6.28126 l 5.7925,-5.62339 -1.886,-1.52107 c -2.5329,-2.04295 -8.7622,-4.9355 -12.33,-5.72544 -3.7223,-0.82414 -10.4245,-0.82267 -14.1362,0.003 -11.3472,2.52452 -21.0419,11.8811 -23.6576,22.83256 -0.8556,3.58223 -0.8572,10.0507 0,13.64314 0.819,3.44572 3.8167,9.45727 5.9339,11.9 l 1.5776,1.82016 2.9328,-2.86024 2.9327,-2.86025 -0.3781,-2.6588 c -0.4698,-3.30305 0.1797,-10.68682 1.1842,-13.46256 0.5064,-1.39923 1.1178,-2.13266 1.8676,-2.24051 1.1732,-0.16872 1.3927,0.23179 1.9827,3.61787 0.1818,1.04358 0.8324,2.51308 1.4457,3.26556 0.6133,0.75249 0.9783,1.71231 0.811,2.13294 -0.4417,1.11106 -2.3599,0.9369 -3.0321,-0.27531 -1.0911,-1.96776 -1.6165,-1.03822 -1.6165,2.86024 0,2.14518 0.185,3.90033 0.4111,3.90033 0.8561,0 15.7267,-14.8879 16.2663,-16.28523 0.7399,-1.91576 0.6528,-6.31962 -0.1767,-8.93691 l -0.6592,-2.08017 -0.6274,2.36758 c -0.3451,1.30216 -1.3028,3.21442 -2.1283,4.24947 -0.8254,1.03504 -2.539,3.1874 -3.8078,4.78303 -2.48,3.11851 -2.856,3.32306 -3.8927,2.11742 -0.5538,-0.64397 -0.4171,-1.15838 0.767,-2.88517 0.7925,-1.15581 2.2435,-2.96782 3.2243,-4.0267 0.9809,-1.05888 2.0609,-2.4364 2.4001,-3.06115 1.4255,-2.62619 0.1799,-7.51217 -2.913,-11.42567 -1.4503,-1.8351 -1.6852,-3.08727 -0.6464,-3.44509 1.8575,-0.63984 6.9002,3.90502 9.2066,8.29782 3.065,5.83755 3.4233,11.32601 1.1537,17.67234 -1.2413,3.47096 -1.3582,4.29172 -0.8462,5.941 0.842,2.71245 1.93,3.47899 3.2731,2.30594 1.6804,-1.46774 2.3515,-4.3121 2.3946,-10.14974 0.039,-5.22493 0.092,-5.46752 1.2321,-5.62404 0.8221,-0.11284 1.9149,0.53428 3.523,2.08636 3.313,3.1974 4.4455,6.8145 4.4455,14.19858 0,5.11849 -0.1521,6.03354 -1.4447,8.69531 -4.1715,8.58982 -14.5635,12.34308 -23.4811,8.48067 -3.1344,-1.35759 -6.6011,-4.26906 -8.1017,-6.80418 -0.5593,-0.94489 -0.7675,-0.84749 -3.1836,1.4894 l -2.5852,2.50041 1.6165,1.28685 c 7.2757,5.79196 16.8812,7.87542 26.9419,5.84377 z m -2.3141,-6.43918 c 3.4401,-1.13127 6.5654,-3.90172 8.3432,-7.39579 1.3076,-2.56999 1.5119,-3.58103 1.4943,-7.39724 -0.023,-4.96044 -0.8993,-9.01303 -2.348,-10.85589 -0.9665,-1.22952 -0.9722,-1.21667 -1.2666,2.86025 -0.1627,2.25242 -0.7111,5.09077 -1.2186,6.30743 -0.9897,2.37251 -3.5412,4.80848 -5.0364,4.80848 -2.4176,0 -5.4293,-4.15879 -5.4551,-7.53284 -0.011,-1.46425 -0.392,-1.18626 -6.7132,4.89982 -6.552,6.30829 -6.6851,6.48203 -5.9716,7.79285 0.8556,1.57191 4.3444,4.86328 6.047,5.70488 1.1756,0.58108 1.1796,0.56916 0.4042,-1.22192 -1.4901,-3.44184 -0.8561,-8.17544 1.6232,-12.1186 1.9569,-3.11253 3.5436,-1.98156 4.3312,3.08734 0.5424,3.49072 0.8783,3.80851 2.9387,2.78017 0.9552,-0.47671 2.0785,-0.74014 2.4963,-0.58541 1.1463,0.42453 0.9869,4.60819 -0.2308,6.05959 -1.1625,1.3856 -2.2426,0.98301 -2.2426,-0.83589 0,-1.38563 -0.5699,-1.5683 -2.2252,-0.71329 -1.5813,0.81677 -2.4661,-0.15499 -2.8975,-3.18251 -0.4297,-3.01559 -1.1466,-3.3348 -1.6519,-0.73551 -0.489,2.51595 0.066,4.78887 1.7397,7.11929 1.1989,1.66962 1.7065,1.96308 3.3957,1.96308 1.0923,0 3.0921,-0.36372 4.444,-0.80829 z"
       id="path20167-0-7" /></g></svg>
