<?xml version="1.0" encoding="UTF-8" standalone="no"?>
<!-- Created with Inkscape (http://www.inkscape.org/) -->
<svg version="1.1" id="svg2" width="70.966934" height="90.151764" viewBox="0 0 70.966934 90.151764" sodipodi:docname="BOTTLES-FIBROLIFE.svg" xml:space="preserve" inkscape:export-filename="../fibrolife/static/images/produtos/fibro-sleep.png " inkscape:export-xdpi="96" inkscape:export-ydpi="96" inkscape:version="1.2 (1:1.2.1+202207142221+cd75a1ee6d)" xmlns:inkscape="http://www.inkscape.org/namespaces/inkscape" xmlns:sodipodi="http://sodipodi.sourceforge.net/DTD/sodipodi-0.dtd" xmlns="http://www.w3.org/2000/svg" xmlns:svg="http://www.w3.org/2000/svg"><defs id="defs6"/><sodipodi:namedview id="namedview4" pagecolor="#ffffff" bordercolor="#999999" borderopacity="1" inkscape:showpageshadow="0" inkscape:pageopacity="0" inkscape:pagecheckerboard="0" inkscape:deskcolor="#d1d1d1" showgrid="false" showguides="true" inkscape:zoom="0.5155987" inkscape:cx="-2797.7185" inkscape:cy="-8.727718" inkscape:window-width="1262" inkscape:window-height="946" inkscape:window-x="-92" inkscape:window-y="97" inkscape:window-maximized="0" inkscape:current-layer="g8" inkscape:lockguides="false"/><g inkscape:groupmode="layer" inkscape:label="Image" id="g8" transform="translate(-42.259846,-455.68002)"><path style="fill:#7e22ce;fill-opacity:1;stroke-width:0.170788" d="m 75.102881,545.66165 c -3.1055,-0.64808 -6.0162,-3.77805 -6.632,-7.1318 -0.3056,-1.66443 -0.1345,-9.16831 0.2428,-10.64727 0.3526,-1.38237 1.3562,-3.73265 2.0563,-4.81553 l 0.5109,-0.79021 -7.7372,-0.0799 c -8.2207,-0.0849 -8.4584,-0.10752 -10.7999,-1.02685 -2.54,-0.99726 -5.1867,-3.21465 -6.7628,-5.66575 -0.7895,-1.22777 -1.6246,-3.19432 -2.0384,-4.8001 -0.5074,-1.96885 -0.5039,-5.54231 0.01,-7.56658 0.672,-2.66086 2.1792,-5.37914 4.0518,-7.30763 l 0.7565,-0.77915 -0.962,-0.74498 c -1.8247,-1.41306 -3.8578,-4.28012 -4.6668,-6.58098 -0.6825,-1.94141 -0.8752,-3.18995 -0.8722,-5.65127 0,-2.06786 0.061,-2.58099 0.4452,-3.9284 1.3265,-4.64943 4.2852,-8.19911 8.3265,-9.98957 2.5051,-1.10986 2.5115,-1.11044 13.1794,-1.18709 l 9.7263,-0.0699 v -1.56565 c 0,-3.00537 0.7017,-4.94346 2.4993,-6.90311 3.3233,-3.62297 8.5994,-3.67214 11.9356,-0.11123 2.1393,2.28349 2.6111,3.91919 2.6147,9.06418 0,5.25039 -0.5242,7.75457 -2.2282,10.57207 l -0.7328,1.21158 6.3242,0.10598 c 3.7617,0.063 6.693099,0.18885 7.234699,0.31051 4.54,1.01985 8.219,4.04845 10.1837,8.38322 1.1089,2.44684 1.3113,3.44964 1.3172,6.52867 0.01,3.10517 -0.2195,4.24014 -1.3378,6.73305 -0.7815,1.74232 -2.2038,3.71716 -3.5409,4.91677 l -0.8094,0.72616 1.0746,1.01028 c 2.0581,1.93496 3.6511,4.68611 4.3946,7.58965 0.2874,1.12227 0.3588,1.88934 0.36,3.86663 0,2.17309 -0.051,2.65109 -0.4412,4.0165 -1.329,4.65165 -4.2862,8.19926 -8.3272,9.98957 -2.4262,1.07493 -2.7105,1.10485 -11.275499,1.18665 l -7.8224,0.0747 v 1.43998 c -0.01,3.0129 -0.805,5.20436 -2.5936,7.11358 -2.0178,2.15386 -4.8682,3.08552 -7.6585,2.50322 z m 3.0874,-6.2574 c 0.518,-0.34539 1.0438,-0.96509 1.2547,-1.47894 0.099,-0.24226 0.2227,-2.03261 0.2738,-3.97855 0.092,-3.50135 0.098,-3.54452 0.539,-4.15967 0.9483,-1.32194 0.5802,-1.27657 11.2256,-1.38322 6.0975,-0.0611 9.697899,-0.16298 10.015999,-0.28347 4.1522,-1.57258 6.6791,-5.82958 6.0502,-10.19247 -0.4717,-3.27187 -2.7979,-6.20732 -5.8846,-7.42557 -0.7864,-0.31036 -1.925599,-0.33111 -22.763699,-0.4148 -20.4821,-0.0823 -21.971,-0.10852 -22.4654,-0.39624 -1.7423,-1.01397 -2.045,-3.71176 -0.5752,-5.12639 0.856,-0.82382 0.3037,-0.80421 22.8817,-0.81241 18.2959,-0.007 21.412999,-0.0445 22.226699,-0.2701 3.0673,-0.85024 5.5276,-3.46856 6.3265,-6.73287 1.1518,-4.70616 -1.7237,-9.795 -6.2614,-11.08071 -0.7099,-0.20115 -4.656899,-0.24455 -22.712299,-0.24975 -12.5137,-0.004 -22.1307,-0.0748 -22.5026,-0.16659 -2.1238,-0.52422 -2.9903,-3.40432 -1.5331,-5.09614 0.1988,-0.23082 0.6595,-0.56604 1.0237,-0.74493 0.6219,-0.30548 1.3133,-0.3255 11.3592,-0.32914 6.5258,-0.003 11.0448,-0.0737 11.5888,-0.18273 2.9398,-0.58967 5.6099,-3.12935 6.6304,-6.30655 0.3466,-1.0791 0.379,-1.49169 0.3827,-4.87874 0,-3.29072 -0.031,-3.77476 -0.3115,-4.37638 -1.0117,-2.16857 -4.1301,-2.09761 -5.0742,0.11547 -0.2713,0.63593 -0.315,1.17489 -0.3181,3.92487 0,2.98979 -0.028,3.23595 -0.3878,3.96424 -0.2573,0.52015 -0.6262,0.92194 -1.1175,1.21698 l -0.7334,0.44048 -11.4232,0.094 c -7.5105,0.0618 -11.5933,0.15889 -11.9199,0.28347 -4.1611,1.5876 -6.6791,5.83011 -6.0501,10.19385 0.3739,2.59397 2.0312,5.17997 4.1821,6.52558 2.1284,1.33149 -0.069,1.21656 25.1357,1.31479 21.1246,0.0824 22.6343,0.1082 23.045399,0.39487 1.1068,0.77196 1.7553,2.16994 1.5135,3.26267 -0.2025,0.91456 -0.7671,1.76375 -1.4496,2.17995 l -0.684099,0.4172 -21.9359,0.0881 c -24.2416,0.0974 -22.1618,-0.008 -24.2124,1.22388 -2.1734,1.30537 -3.9242,4.04123 -4.2623,6.66055 -0.5895,4.56672 2.1982,9.01014 6.3802,10.16937 0.8489,0.23534 3.6794,0.27032 22.1707,0.27398 12.1279,0.003 21.4754,0.0728 21.8469,0.1645 2.122099,0.52377 2.994299,3.41951 1.533199,5.08964 -0.8965,1.02469 -0.5349,0.98855 -10.874199,1.08679 -10.5548,0.10029 -10.0137,0.0409 -12.0744,1.32618 -1.9694,1.22834 -3.5249,3.49348 -4.0609,5.91336 -0.1756,0.79288 -0.2493,2.09346 -0.2484,4.38654 7e-4,2.80078 0.044,3.36111 0.3093,3.98167 0.6602,1.54691 2.6432,2.23813 3.9402,1.37341 z" id="path16923-9-2"/></g></svg>