<?xml version="1.0" encoding="UTF-8" standalone="no"?>
<!-- Created with Inkscape (http://www.inkscape.org/) -->
<svg version="1.1" id="svg2" width="76.317719" height="75.648071" viewBox="0 0 76.317719 75.648071" sodipodi:docname="BOTTLES-FIBROLIFE.svg" xml:space="preserve" inkscape:export-filename="../fibrolife/static/images/produtos/fibro-sleep.png " inkscape:export-xdpi="96" inkscape:export-ydpi="96" inkscape:version="1.2 (1:1.2.1+202207142221+cd75a1ee6d)" xmlns:inkscape="http://www.inkscape.org/namespaces/inkscape" xmlns:sodipodi="http://sodipodi.sourceforge.net/DTD/sodipodi-0.dtd" xmlns="http://www.w3.org/2000/svg" xmlns:svg="http://www.w3.org/2000/svg"><defs id="defs6"/><sodipodi:namedview id="namedview4" pagecolor="#ffffff" bordercolor="#999999" borderopacity="1" inkscape:showpageshadow="0" inkscape:pageopacity="0" inkscape:pagecheckerboard="0" inkscape:deskcolor="#d1d1d1" showgrid="false" showguides="true" inkscape:zoom="0.5155987" inkscape:cx="-2797.7185" inkscape:cy="-8.727718" inkscape:window-width="1262" inkscape:window-height="946" inkscape:window-x="-92" inkscape:window-y="97" inkscape:window-maximized="0" inkscape:current-layer="g8" inkscape:lockguides="false"/><g inkscape:groupmode="layer" inkscape:label="Image" id="g8" transform="translate(-222.08969,-453.65466)"><path style="fill:#7e22ce;fill-opacity:1;stroke-width:0.596374" d="m 250.4354,528.66354 c -0.1348,-0.41817 -0.3497,-3.84654 -0.4775,-7.6186 -0.2655,-7.83369 -0.7248,-9.0637 -4.8992,-13.12024 -14.6463,-14.23246 -8.2063,-37.00936 11.5002,-40.67417 13.0434,-2.42568 25.9532,7.81521 26.8168,21.27287 0.4768,7.42837 -2.1015,13.73039 -7.9372,19.4013 -4.1892,4.07085 -4.6185,5.24682 -5.0075,13.71661 l -0.3423,7.45468 -9.7041,0.16393 c -7.4541,0.12592 -9.7609,-0.0123 -9.9492,-0.59638 z m 17.566,-3.44399 c 0,-1.13158 -0.3976,-1.19274 -7.7528,-1.19274 -7.3553,0 -7.7529,0.0612 -7.7529,1.19274 0,1.13159 0.3976,1.19275 7.7529,1.19275 7.3552,0 7.7528,-0.0612 7.7528,-1.19275 z m 0,-5.06918 v -1.49093 h -7.7528 -7.7529 v 1.49093 1.49094 h 7.7529 7.7528 z m 0.3705,-5.51646 c 0.7108,-2.96408 2.1162,-5.16702 5.6862,-8.91262 7.9975,-8.39097 9.1496,-18.51449 3.119,-27.40732 -5.3788,-7.93171 -16.3427,-11.09709 -24.8873,-7.18523 -6.4111,2.93511 -10.3015,7.40549 -12.0428,13.83816 -2.0044,7.40494 0.058,14.31897 6.192,20.75439 3.57,3.7456 4.9755,5.94854 5.6862,8.91262 l 0.3932,1.64003 h 7.7302 7.7301 z m -13.4907,-8.07042 c -0.82,-0.411 -1.7559,-1.34634 -2.0796,-2.07852 -0.3238,-0.73219 -0.9474,-1.33126 -1.3857,-1.33126 -0.4384,0 -1.7837,-0.92186 -2.9896,-2.04858 -1.2059,-1.12672 -3.0647,-2.85047 -4.1307,-3.83056 -1.6202,-1.48952 -1.9361,-2.20547 -1.925,-4.36244 0.01,-1.63868 0.4389,-3.12461 1.1795,-4.0714 0.6414,-0.82001 1.1722,-1.98741 1.1795,-2.59422 0.01,-0.60682 0.8854,-1.98931 1.9515,-3.07221 2.0256,-2.05777 2.1222,-2.18246 4.7689,-6.15675 1.9724,-2.96179 4.0713,-4.43947 5.9313,-4.17582 l 1.3763,0.19509 0.1588,16.32746 c 0.1818,18.6861 0.05,19.24685 -4.0352,17.19921 z m 1.7891,-8.43835 c 0,-6.20409 -0.01,-6.22478 -1.7538,-7.47017 -0.9647,-0.68687 -1.922,-1.77862 -2.1275,-2.42611 -0.2055,-0.64748 -0.7429,-1.17725 -1.1942,-1.17725 -0.4513,0 -1.2516,-0.60383 -1.7785,-1.34184 -0.9404,-1.31733 -0.9737,-1.3207 -1.8229,-0.1842 -0.4758,0.6367 -0.8651,1.64308 -0.8651,2.2364 0,0.59332 -0.5367,1.6155 -1.1927,2.27151 -0.656,0.65601 -1.1928,1.86367 -1.1928,2.68368 0,1.67478 1.8924,3.87644 3.3319,3.87644 0.5205,0 1.2532,-0.81289 1.6282,-1.80641 0.4092,-1.08405 1.0416,-1.73715 1.5814,-1.63319 1.4322,0.27583 1.4395,2.24165 0.016,4.1677 -1.5164,2.05106 -0.9786,3.07622 1.6371,3.12065 1.1562,0.0196 1.6857,0.3743 1.8219,1.22043 0.3219,1.99817 0.653,2.68368 1.2963,2.68368 0.3833,0 0.6151,-2.34515 0.6151,-6.22132 z m 0,-16.19241 c 0,-6.70704 -0.549,-7.64654 -2.3855,-4.08221 -0.492,0.95491 -1.3642,2.08917 -1.9382,2.52059 -1.7167,1.29024 -1.3345,3.69246 0.7103,4.46428 1.0166,0.38374 1.8989,1.23942 2.0987,2.03551 0.1896,0.7554 0.6079,1.37346 0.9297,1.37346 0.3456,0 0.585,-2.58318 0.585,-6.31163 z m 5.4625,24.61565 c -0.521,-0.62781 -0.6685,-5.21797 -0.5521,-17.1841 l 0.1588,-16.32746 1.3763,-0.19509 c 1.86,-0.26365 3.9589,1.21403 5.9313,4.17582 2.6467,3.97429 2.7433,4.09898 4.769,6.15675 1.066,1.0829 1.9442,2.46539 1.9515,3.07221 0.01,0.60681 0.538,1.77421 1.1794,2.59422 0.7406,0.94679 1.1711,2.43272 1.1795,4.0714 0.011,2.15697 -0.3048,2.87292 -1.9249,4.36244 -1.066,0.98009 -2.9249,2.70384 -4.1308,3.83056 -1.2059,1.12672 -2.6148,2.04858 -3.1309,2.04858 -0.5162,0 -0.9385,0.36096 -0.9385,0.80213 0,2.07463 -4.6087,4.11061 -5.8686,2.59254 z m 3.4889,-4.33843 c 0.2472,-1.41499 0.6088,-1.74509 1.9361,-1.7676 2.618,-0.0444 3.1563,-1.06904 1.6395,-3.12065 -1.424,-1.92605 -1.4167,-3.89187 0.016,-4.1677 0.5398,-0.10396 1.1722,0.54914 1.5814,1.63319 0.375,0.99352 1.1077,1.80641 1.6282,1.80641 1.4395,0 3.3318,-2.20166 3.3318,-3.87644 0,-0.82001 -0.5367,-2.02767 -1.1927,-2.68368 -0.656,-0.65601 -1.1928,-1.67819 -1.1928,-2.27151 0,-0.59332 -0.3892,-1.5997 -0.865,-2.2364 -0.8493,-1.1365 -0.8826,-1.13313 -1.823,0.1842 -0.5268,0.73801 -1.3271,1.34184 -1.7784,1.34184 -0.4513,0 -0.9887,0.52977 -1.1942,1.17725 -0.2055,0.64749 -1.1629,1.73924 -2.1275,2.42611 -1.7505,1.24647 -1.7539,1.26079 -1.7539,7.51987 0,4.75149 0.1807,6.21093 0.7455,6.02303 0.41,-0.1364 0.8823,-1.03096 1.0495,-1.98792 z m -0.2801,-15.33905 c 0.1998,-0.79609 1.082,-1.65177 2.0986,-2.03551 2.0448,-0.77182 2.427,-3.17404 0.7103,-4.46428 -0.574,-0.43142 -1.4462,-1.56568 -1.9382,-2.52059 -1.8365,-3.56433 -2.3855,-2.62483 -2.3855,4.08221 0,3.72845 0.2394,6.31163 0.585,6.31163 0.3218,0 0.7402,-0.61806 0.9298,-1.37346 z m -37.8279,39.32234 c -1.0236,-1.23329 0.7656,-2.61242 2.0289,-1.56396 0.6861,0.56934 0.74,0.94373 0.2252,1.56396 -0.3722,0.44849 -0.8794,0.81544 -1.1271,0.81544 -0.2476,0 -0.7548,-0.36695 -1.127,-0.81544 z m 63.2156,0 c -1.0235,-1.23329 0.7657,-2.61242 2.029,-1.56396 0.686,0.56934 0.7399,0.94373 0.2252,1.56396 -0.3722,0.44849 -0.8794,0.81544 -1.1271,0.81544 -0.2477,0 -0.7549,-0.36695 -1.1271,-0.81544 z m -57.7137,-5.48658 c -0.5427,-1.41427 0.7293,-2.41171 1.8691,-1.46572 0.7064,0.58622 0.766,0.96372 0.2505,1.58494 -0.8931,1.07606 -1.6778,1.03193 -2.1196,-0.11922 z m 52.3463,0.11922 c -0.5155,-0.62122 -0.4559,-0.99872 0.2505,-1.58494 1.1398,-0.94599 2.4118,0.0515 1.8691,1.46572 -0.4417,1.15115 -1.2265,1.19528 -2.1196,0.11922 z m -46.558,-5.41657 c -0.6254,-0.7536 -0.6254,-1.09538 0,-1.84898 0.6931,-0.83508 0.8567,-0.83508 1.6918,0 0.8351,0.83507 0.8351,1.01391 0,1.84898 -0.8351,0.83508 -0.9987,0.83508 -1.6918,0 z m 41.1498,0 c -0.6254,-0.7536 -0.6254,-1.09538 0,-1.84898 0.6931,-0.83508 0.8567,-0.83508 1.6918,0 0.8351,0.83507 0.8351,1.01391 0,1.84898 -0.8351,0.83508 -0.9987,0.83508 -1.6918,0 z m -55.8143,-5.78536 c -0.2082,-0.65601 -0.287,-1.25288 -0.175,-1.32636 0.1119,-0.0735 2.6745,-1.2401 5.6945,-2.59248 5.2361,-2.34478 5.5085,-2.4036 5.8691,-1.26745 0.208,0.65529 0.2865,1.26985 0.1746,1.36568 -0.112,0.0958 -2.6743,1.26305 -5.6941,2.59381 -5.2457,2.31164 -5.5074,2.36636 -5.8691,1.2268 z m 66.2261,-1.28226 c -2.9521,-1.33831 -5.459,-2.49614 -5.571,-2.57294 -0.1119,-0.0768 -0.033,-0.6758 0.1746,-1.33109 0.3606,-1.13615 0.633,-1.07733 5.8691,1.26745 6.6426,2.97457 6.0874,2.57243 5.4356,3.93721 -0.5117,1.07126 -0.8319,1.00075 -5.9083,-1.30063 z M 223.8697,494.2081 c 0,-0.79516 0.3976,-1.19275 1.1928,-1.19275 0.7952,0 1.1927,0.39759 1.1927,1.19275 0,0.79516 -0.3975,1.19275 -1.1927,1.19275 -0.7952,0 -1.1928,-0.39759 -1.1928,-1.19275 z m 7.7529,0 c 0,-0.79516 0.3976,-1.19275 1.1928,-1.19275 0.7951,0 1.1927,0.39759 1.1927,1.19275 0,0.79516 -0.3976,1.19275 -1.1927,1.19275 -0.7952,0 -1.1928,-0.39759 -1.1928,-1.19275 z m 54.8664,0 c 0,-0.79516 0.3976,-1.19275 1.1928,-1.19275 0.7951,0 1.1927,0.39759 1.1927,1.19275 0,0.79516 -0.3976,1.19275 -1.1927,1.19275 -0.7952,0 -1.1928,-0.39759 -1.1928,-1.19275 z m 7.7529,0 c 0,-0.79516 0.3976,-1.19275 1.1927,-1.19275 0.7952,0 1.1928,0.39759 1.1928,1.19275 0,0.79516 -0.3976,1.19275 -1.1928,1.19275 -0.7951,0 -1.1927,-0.39759 -1.1927,-1.19275 z m -66.6448,-13.30946 c -3.0341,-1.35792 -5.5124,-2.60886 -5.5074,-2.77988 0.01,-0.17102 0.2538,-0.6976 0.5528,-1.17017 0.4536,-0.71692 1.3658,-0.49205 5.5074,1.35765 6.3631,2.84191 6.569,2.98238 6.1128,4.17115 -0.4828,1.25799 -0.1527,1.33618 -6.6656,-1.57875 z m 58.647,1.60395 c -0.4674,-1.21815 -0.2863,-1.34267 6.1032,-4.19635 4.1415,-1.8497 5.0537,-2.07457 5.5073,-1.35765 0.299,0.47257 0.5478,1.00552 0.5528,1.18433 0.01,0.24588 -7.3491,3.63177 -11.3332,5.21655 -0.241,0.0959 -0.6146,-0.28522 -0.8301,-0.84688 z m -48.5921,-9.38664 c -0.5156,-0.62122 -0.4559,-0.99872 0.2505,-1.58494 1.1398,-0.94599 2.4118,0.0515 1.8691,1.46572 -0.4418,1.15115 -1.2265,1.19528 -2.1196,0.11922 z m 43.0736,-0.11922 c -0.5427,-1.41427 0.7292,-2.41171 1.8691,-1.46572 0.7063,0.58622 0.766,0.96372 0.2504,1.58494 -0.893,1.07606 -1.6778,1.03193 -2.1195,-0.11922 z m -48.4818,-5.29735 c -0.6254,-0.75359 -0.6254,-1.09539 0,-1.84898 0.6931,-0.83508 0.8567,-0.83508 1.6918,0 0.835,0.83507 0.835,1.01391 0,1.84898 -0.8351,0.83508 -0.9987,0.83508 -1.6918,0 z m 54.2701,0 c -0.6255,-0.75359 -0.6255,-1.09539 0,-1.84898 0.693,-0.83508 0.8566,-0.83508 1.6917,0 0.8351,0.83507 0.8351,1.01391 0,1.84898 -0.8351,0.83508 -0.9987,0.83508 -1.6917,0 z m -41.4949,-7.26636 c -2.0462,-4.40869 -2.5082,-5.91111 -1.9304,-6.27741 0.4178,-0.26486 0.9754,-0.414 1.2392,-0.33143 0.2637,0.0826 1.6564,2.62693 3.095,5.65411 2.5073,5.27618 2.5673,5.52978 1.4509,6.12729 -1.0569,0.56559 -1.4137,0.0867 -3.8547,-5.17256 z m 25.8213,4.80736 c -0.5624,-0.56247 4.781,-11.27243 5.7225,-11.46965 1.7149,-0.35921 1.5145,1.00591 -0.9343,6.36721 -2.3101,5.05764 -3.5315,6.35914 -4.7882,5.10244 z m -11.7845,-2.34192 c 0,-1.09335 0.3181,-1.49094 1.1928,-1.49094 0.8746,0 1.1927,0.39759 1.1927,1.49094 0,1.09335 -0.3181,1.49093 -1.1927,1.49093 -0.8747,0 -1.1928,-0.39758 -1.1928,-1.49093 z m -32.1793,-0.56644 c -0.6255,-0.7536 -0.6255,-1.09539 0,-1.84899 0.693,-0.83507 0.8566,-0.83507 1.6917,0 0.8351,0.83507 0.8351,1.01391 0,1.84899 -0.8351,0.83507 -0.9987,0.83507 -1.6917,0 z m 65.0047,0 c -0.6254,-0.7536 -0.6254,-1.09539 0,-1.84899 0.6931,-0.83507 0.8567,-0.83507 1.6918,0 0.8351,0.83507 0.8351,1.01391 0,1.84899 -0.8351,0.83507 -0.9987,0.83507 -1.6918,0 z m -32.8254,-7.18643 c 0,-1.09335 0.3181,-1.49093 1.1928,-1.49093 0.8746,0 1.1927,0.39758 1.1927,1.49093 0,1.09336 -0.3181,1.49094 -1.1927,1.49094 -0.8747,0 -1.1928,-0.39758 -1.1928,-1.49094 z" id="path29261-0-1"/></g></svg>