<svg width="237" height="256" viewBox="0 0 237 256" fill="#7E22CE"  xmlns="http://www.w3.org/2000/svg">

<path d="M19.1665 254.27C13.3825 252.343 5.25157 245.32 2.20021 239.617L0 235.504V128.004V20.5039L2.20021 16.3914C3.41034 14.1295 6.63011 10.2741 9.35531 7.8239C18.5362 -0.430476 12.4729 0.00393987 118.5 0.00393987C224.527 0.00393987 218.464 -0.430476 227.645 7.8239C230.37 10.2741 233.59 14.1295 234.8 16.3914L237 20.5039V128.004V235.504L234.8 239.617C233.59 241.878 230.37 245.734 227.645 248.184C218.455 256.447 224.59 256.012 118.135 255.942C34.3607 255.887 23.468 255.703 19.1665 254.27ZM217 245.346C219.2 244.158 222.214 241.908 223.697 240.346C229.799 233.917 229.5 239.699 229.5 128.004C229.5 16.3085 229.799 22.0913 223.697 15.6624C222.214 14.0995 219.2 11.8495 217 10.6624L213 8.5039H118.5H24L20 10.6624C17.8 11.8495 14.7864 14.0995 13.3031 15.6624C7.20128 22.0913 7.5 16.3085 7.5 128.004C7.5 218.015 7.68331 230.507 9.05305 233.786C11.8728 240.536 18.0785 245.553 25.5 247.083C27.425 247.479 70.4 247.736 121 247.654L213 247.504L217 245.346ZM22.8667 237.086C16.0022 232.9 16.5 241.436 16.5 127.916C16.5 25.3412 16.5014 25.2719 18.5883 22.6188C23.2289 16.7192 18.1633 17.0039 118.5 17.0039C218.837 17.0039 213.771 16.7193 218.412 22.6188C220.499 25.2719 220.5 25.34 220.5 128.004C220.5 230.668 220.499 230.736 218.412 233.389C213.771 239.289 218.857 239.004 118.3 239C29.2034 238.996 25.8913 238.93 22.8667 237.086V237.086ZM211.3 228.804C213.041 227.063 213.041 28.9446 211.3 27.204C209.56 25.4643 27.4397 25.4643 25.7 27.204C23.9593 28.9446 23.9593 227.063 25.7 228.804C27.4397 230.544 209.56 230.544 211.3 228.804ZM116.25 220.924C114.63 219.98 114.5 216.951 114.5 180.036C114.5 158.108 114.773 139.456 115.107 138.586C115.907 136.5 121.093 136.5 121.893 138.586C122.227 139.456 122.5 158.115 122.5 180.051C122.5 218.458 122.429 219.972 120.566 220.969C118.264 222.201 118.446 222.203 116.25 220.924V220.924ZM68.1852 216.953C59.3331 215.432 54.5 208.028 54.5 195.986C54.5 189.455 53.8699 186.688 50 176.222C47.525 169.528 45.5074 162.353 45.5165 160.278C45.5505 152.134 51.7788 145.843 63.1603 142.452C72.8466 139.566 87.2504 143.628 91.4555 150.432C94.8741 155.963 94.9565 159.642 91.9523 172.601C90.3514 179.506 88.9356 189.164 88.5806 195.602C88.0234 205.707 87.7201 207.027 85.1937 210.339C80.8582 216.023 75.3165 218.178 68.1852 216.953V216.953ZM77.1529 206.626C79.7864 204.361 79.9518 203.687 80.6484 192.376C81.0505 185.846 82.4713 175.727 83.8057 169.888C86.5535 157.864 86.0231 154.475 81.0385 152.203C71.9467 148.061 58.709 150.618 55.0668 157.221L53.1335 160.725L57.8168 173.174C61.8132 183.797 62.5 186.681 62.5 192.845C62.5 200.631 64.2136 206.161 67.1563 207.871C70.2079 209.645 74.2246 209.145 77.1529 206.626V206.626ZM162 216.983C157.443 216.023 154.856 214.337 151.806 210.339C149.28 207.027 148.977 205.707 148.419 195.602C148.065 189.164 146.649 179.506 145.048 172.601C142.044 159.642 142.126 155.963 145.545 150.432C148.245 146.062 153.067 143.593 161.84 142.088C167.557 141.107 169.526 141.166 173.84 142.452C185.221 145.843 191.448 152.134 191.484 160.278C191.491 162.353 189.475 169.528 187 176.222C183.13 186.688 182.5 189.455 182.5 195.986C182.5 208.031 177.743 215.332 168.858 216.924C166.736 217.304 163.65 217.331 162 216.983V216.983ZM169.65 207.923C172.745 206.267 174.5 200.81 174.5 192.845C174.5 186.681 175.187 183.797 179.183 173.174L183.867 160.725L181.933 157.221C178.291 150.618 165.053 148.061 155.962 152.203C150.977 154.475 150.447 157.864 153.194 169.888C154.529 175.727 155.95 185.846 156.352 192.376C157.048 203.687 157.214 204.361 159.847 206.626C162.818 209.182 166.411 209.657 169.65 207.923V207.923ZM40.6962 145.706C37.2991 142.201 36.7534 140.151 38.7 138.204C40.8841 136.02 44.2137 136.914 47.3964 140.539C50.902 144.531 50.8727 144.439 49.4648 147.07C47.9111 149.973 44.2849 149.409 40.6962 145.706V145.706ZM187.535 147.07C186.127 144.439 186.098 144.531 189.604 140.539C192.786 136.914 196.116 136.02 198.3 138.204C200.293 140.196 199.672 142.445 196.202 145.808C192.468 149.427 189.062 149.923 187.535 147.07V147.07ZM53.9 137.604C50.373 134.077 49.6371 131.267 51.7 129.204C53.6926 127.211 55.9405 127.831 59.3039 131.302C62.6355 134.739 63.3446 137.759 61.3 139.804C59.3481 141.756 57.5036 141.208 53.9 137.604V137.604ZM81.7 139.804C79.6095 137.713 80.3929 134.5 83.7976 131.2C87.3025 127.803 89.3535 127.257 91.3 129.204C93.4841 131.388 92.5902 134.718 88.9652 137.9C85.1426 141.257 83.5659 141.67 81.7 139.804V139.804ZM148.035 137.9C144.41 134.718 143.516 131.388 145.7 129.204C147.693 127.211 149.941 127.831 153.304 131.302C156.923 135.036 157.419 138.442 154.566 139.969C151.935 141.377 152.028 141.406 148.035 137.9V137.9ZM175.7 139.804C173.61 137.713 174.393 134.5 177.798 131.2C181.302 127.803 183.353 127.257 185.3 129.204C187.363 131.267 186.627 134.077 183.1 137.604C179.496 141.208 177.652 141.756 175.7 139.804V139.804ZM67.9563 133.686C66.3991 127.481 69.4648 122.23 73.25 124.618C74.5277 125.424 75 127.042 75 130.613C75 135.389 74.9244 135.511 71.7844 135.815C69.0859 136.076 68.4702 135.733 67.9563 133.686V133.686ZM161.902 134.609C160.853 131.875 161.992 125.712 163.75 124.61C167.52 122.249 170.601 127.481 169.059 133.625C168.596 135.472 167.788 136.004 165.45 136.004C163.793 136.004 162.196 135.376 161.902 134.609V134.609ZM115.572 126.591C113.709 124.346 114.604 112.961 116.75 111.613C120.079 109.523 121.967 112.017 122.3 118.945C122.615 125.499 121.565 128.004 118.5 128.004C117.535 128.004 116.217 127.368 115.572 126.591ZM38.7 100.804C37.817 99.921 37.5 91.2118 37.5 67.8391C37.5 37.4577 37.5843 36.0293 39.4343 35.0391C42.1145 33.6047 194.886 33.6047 197.566 35.0391C199.416 36.0293 199.5 37.4577 199.5 67.8391C199.5 91.2118 199.183 99.921 198.3 100.804C196.562 102.542 40.4377 102.542 38.7 100.804V100.804ZM100.475 86.4755C93.7903 79.743 92.9448 79.1779 92.4773 81.1309C91.7393 84.2137 88.9717 85.7903 86.75 84.3934C85.3585 83.5185 84.9402 81.6048 84.708 75.0516C84.4068 66.547 85.2531 64.0039 88.385 64.0039C89.287 64.0039 96.7693 70.7595 105.012 79.0163L120 94.0287L155.5 93.7663L191 93.5041L191.267 68.2541L191.534 43.0041H184.028H176.522L172.564 50.8768C168.428 59.1032 166.641 60.6851 163.428 58.9653C160.847 57.5841 161 54.9252 164 49.0041C165.375 46.2906 166.5 43.8306 166.5 43.5373C166.5 43.244 156.6 43.0041 144.5 43.0041H122.5V47.4223C122.5 53.5779 121.748 55.004 118.5 55.004C115.252 55.004 114.5 53.5779 114.5 47.4223V43.0041H92.5001C80.4001 43.0041 70.5001 43.2441 70.5001 43.5373C70.5001 43.8306 71.6251 46.2906 73.0001 49.0041C76.0006 54.9252 76.1534 57.5841 73.5725 58.9653C70.3591 60.6851 68.5723 59.1032 64.4361 50.8768L60.4778 43.0041H52.9889H45.5001V67.8374C45.5001 81.4957 45.8002 92.9707 46.1667 93.3374C46.5334 93.704 60.5847 94.0041 77.3917 94.0041H107.95L100.475 86.4755Z"/>

</svg>