<?xml version="1.0" encoding="UTF-8" standalone="no"?>
<!-- Created with Inkscape (http://www.inkscape.org/) -->
<svg version="1.1" id="svg2" width="74.430954" height="86.697525" viewBox="0 0 74.430954 86.697525" sodipodi:docname="BOTTLES-FIBROLIFE.svg" xml:space="preserve" inkscape:export-filename="../fibrolife/static/images/produtos/fibro-sleep.png " inkscape:export-xdpi="96" inkscape:export-ydpi="96" inkscape:version="1.2 (1:1.2.1+202207142221+cd75a1ee6d)" xmlns:inkscape="http://www.inkscape.org/namespaces/inkscape" xmlns:sodipodi="http://sodipodi.sourceforge.net/DTD/sodipodi-0.dtd" xmlns="http://www.w3.org/2000/svg" xmlns:svg="http://www.w3.org/2000/svg"><defs id="defs6"/><sodipodi:namedview id="namedview4" pagecolor="#ffffff" bordercolor="#999999" borderopacity="1" inkscape:showpageshadow="0" inkscape:pageopacity="0" inkscape:pagecheckerboard="0" inkscape:deskcolor="#d1d1d1" showgrid="false" showguides="true" inkscape:zoom="0.5155987" inkscape:cx="-2797.7185" inkscape:cy="-8.727718" inkscape:window-width="1262" inkscape:window-height="946" inkscape:window-x="-92" inkscape:window-y="97" inkscape:window-maximized="0" inkscape:current-layer="g8" inkscape:lockguides="false"/><g inkscape:groupmode="layer" inkscape:label="Image" id="g8" transform="translate(-242.39775,-209.77873)"><path style="fill:#7e22ce;fill-opacity:1;stroke-width:0.677116" d="m 255.48473,295.106 c -4.2753,-2.60694 -7.8419,-9.41031 -8.8317,-16.84643 -0.2331,-1.75099 -1.3248,-5.45005 -2.4261,-8.22013 -1.8311,-4.60573 -1.9801,-5.59093 -1.742,-11.51884 0.2327,-5.79312 0.5285,-7.04691 2.7821,-11.7924 1.387,-2.92053 2.5229,-5.96401 2.5243,-6.76329 0,-2.04498 2.2943,-5.56366 4.5356,-6.96699 1.042,-0.65235 2.0226,-1.27951 2.1792,-1.39369 0.1567,-0.11418 -0.3704,-0.9051 -1.1713,-1.75758 -3.3928,-3.61146 -3.2869,-9.09899 0.2662,-13.79653 2.1974,-2.90512 8.0832,-5.6764 13.0035,-6.12256 3.7029,-0.33577 4.1508,-0.21968 6.1126,1.58425 1.1642,1.07061 2.6589,3.43796 3.3215,5.26078 2.1644,5.95441 4.9848,5.95441 7.1492,0 0.6625,-1.82282 2.1573,-4.19017 3.3215,-5.26078 1.9618,-1.80393 2.4097,-1.92002 6.1126,-1.58425 4.9203,0.44616 10.8061,3.21744 13.0035,6.12256 3.5531,4.69754 3.659,10.18507 0.2662,13.79653 -0.8009,0.85248 -1.328,1.6434 -1.1714,1.75758 0.1567,0.11418 1.1373,0.74134 2.1793,1.39369 2.2413,1.40333 4.5321,4.92201 4.5356,6.96699 0,0.79928 1.1373,3.84276 2.5243,6.76329 2.2536,4.74549 2.5494,5.99928 2.7821,11.7924 0.2381,5.92791 0.089,6.91311 -1.742,11.51884 -1.1013,2.77008 -2.193,6.46914 -2.4261,8.22013 -0.9898,7.43612 -4.5565,14.23949 -8.8317,16.84643 -2.5118,1.53163 -4.9617,1.62769 -9.761,0.38275 -2.97,-0.7704 -3.6538,-0.7704 -4.2932,0 -1.0927,1.31667 -19.0559,1.31667 -20.1486,0 -0.6394,-0.7704 -1.3232,-0.7704 -4.2932,0 -4.7994,1.24494 -7.2492,1.14888 -9.761,-0.38275 z m 10.9512,-2.77367 c 1.5818,-0.60138 1.6663,-0.91284 1.6663,-6.13965 0,-4.98226 -0.1127,-5.45874 -1.1849,-5.00805 -2.0416,0.85816 -4.17,1.16973 -5.225,0.76489 -1.4556,-0.55857 -0.5049,-2.47025 1.2347,-2.48268 0.7981,-0.005 1.896,-0.2918 2.4398,-0.63578 0.853,-0.53952 0.8297,-0.80113 -0.1692,-1.90502 -2.4987,-2.76096 -0.6352,-3.90865 2.4307,-1.49704 5.7442,4.51843 18.2256,4.51843 23.9698,0 3.0659,-2.41161 4.9294,-1.26392 2.4307,1.49704 -0.999,1.10389 -1.0222,1.3655 -0.1692,1.90502 0.5438,0.34398 1.6417,0.63008 2.4398,0.63578 1.7396,0.0124 2.6903,1.92411 1.2347,2.48268 -1.055,0.40484 -3.1834,0.0933 -5.225,-0.76489 -1.0722,-0.45069 -1.1849,0.0258 -1.1849,5.00805 0,6.25922 0.077,6.34124 6.7379,7.22491 3.2965,0.4373 3.489,0.36777 6.0167,-2.17378 2.9864,-3.00272 5.2551,-8.44986 6.1494,-14.76512 0.3309,-2.33602 1.2885,-5.58785 2.1282,-7.22628 3.1163,-6.08082 2.4081,-15.45622 -1.7941,-23.74886 -0.8982,-1.77249 -1.6331,-3.95351 -1.6331,-4.8467 0,-2.00885 -2.2019,-4.89543 -4.7323,-6.20398 -1.8642,-0.96399 -1.9556,-0.92206 -4.3419,1.99004 -2.5944,3.16616 -5.4295,8.36421 -6.1606,11.29523 -0.4048,1.62263 -0.2919,1.74919 1.2903,1.44673 0.9536,-0.18229 2.1908,-0.15608 2.7494,0.0582 1.3559,0.52032 0.5584,2.47232 -1.0101,2.47232 -0.6745,0 -1.7215,0.19 -2.3266,0.42222 -1.0113,0.38803 -1.0091,0.52305 0.027,1.66757 0.6347,0.70129 0.9397,1.73375 0.6981,2.36331 -0.3985,1.0383 -0.537,1.03849 -1.9442,0.003 -4.2027,-3.09305 -7.5274,-4.11732 -13.3647,-4.11732 -5.8374,0 -9.1621,1.02427 -13.3648,4.11734 -1.4072,1.03569 -1.5457,1.0355 -1.9442,-0.003 -0.2415,-0.62956 0.063,-1.66202 0.6981,-2.36332 1.0357,-1.14452 1.0379,-1.27953 0.027,-1.66756 -0.6052,-0.23225 -1.6522,-0.42225 -2.3267,-0.42225 -1.5685,0 -2.366,-1.952 -1.01,-2.47232 0.5585,-0.21434 1.7957,-0.24055 2.7494,-0.0582 1.5821,0.30245 1.695,0.1759 1.2903,-1.44674 -0.7311,-2.93101 -3.5663,-8.12906 -6.1607,-11.29522 -2.3863,-2.9121 -2.4777,-2.95403 -4.3419,-1.99004 -2.5304,1.30855 -4.7323,4.19513 -4.7323,6.20398 0,0.89319 -0.7349,3.07421 -1.633,4.8467 -4.2022,8.29264 -4.9105,17.66804 -1.7942,23.74886 0.8397,1.63843 1.7974,4.89026 2.1282,7.22628 0.8943,6.31526 3.163,11.7624 6.1494,14.76512 2.5278,2.54155 2.7202,2.61108 6.0167,2.17378 1.873,-0.24845 4.1552,-0.73682 5.0717,-1.08526 z m 21.8413,-1.34415 0.2001,-2.3699 h -8.8333 -8.8333 v 2.08777 c 0,1.14828 0.212,2.29981 0.4712,2.55896 0.2591,0.25916 4.1441,0.38611 8.6332,0.28214 l 8.162,-0.18906 z m -1.8928,-5.34175 c 1.2974,-0.3579 1.7431,-0.98601 1.9086,-2.68943 l 0.2157,-2.22249 -3.2628,0.54651 c -1.7945,0.30058 -4.3293,0.54651 -5.6327,0.54651 -1.3034,0 -3.8382,-0.24593 -5.6327,-0.54651 l -3.2628,-0.54651 0.2157,2.22249 c 0.2633,2.71111 1.4877,3.15638 8.6798,3.15638 2.7931,0 5.8401,-0.21013 6.7712,-0.46695 z m -6.7712,-36.30089 c 3.1655,0 6.7114,0.2452 7.8798,0.54488 2.07,0.53093 2.1522,0.46336 3.2092,-2.639 1.0138,-2.97521 1.0077,-3.24217 -0.093,-4.07331 -5.0585,-3.81968 -16.9337,-3.81968 -21.9921,0 -1.1007,0.83114 -1.1068,1.0981 -0.093,4.07331 1.0571,3.10236 1.1393,3.16993 3.2093,2.639 1.1684,-0.29968 4.7143,-0.54488 7.8798,-0.54488 z m -9.9605,-9.98747 c 2.4367,-1.3022 3.8835,-1.52351 9.9605,-1.52351 6.077,0 7.5238,0.22131 9.9605,1.52351 1.5679,0.83794 2.9747,1.52352 3.1263,1.52352 0.1516,0 1.0475,-1.14264 1.991,-2.53919 0.9435,-1.39655 3.7263,-4.65034 6.184,-7.23064 4.0091,-4.20906 4.4683,-4.97493 4.4661,-7.44828 0,-5.34313 -4.0309,-9.22176 -11.1143,-10.70752 -3.4389,-0.72132 -3.9244,-0.66965 -5.6229,0.59844 -1.0975,0.81938 -2.2063,2.58752 -2.7068,4.31629 -1.1895,4.10829 -3.2294,6.08299 -6.2839,6.08299 -3.0545,0 -5.0944,-1.9747 -6.2839,-6.08299 -0.5005,-1.72877 -1.6093,-3.49691 -2.7068,-4.31629 -1.6985,-1.26809 -2.184,-1.31976 -5.6229,-0.59844 -7.0876,1.48664 -11.1094,5.36428 -11.1143,10.71596 0,2.48877 0.4468,3.2335 4.4911,7.44828 2.4714,2.57565 5.2542,5.82565 6.184,7.2222 0.9297,1.39655 1.8144,2.53919 1.966,2.53919 0.1515,0 1.5584,-0.68558 3.1263,-1.52352 z" id="path38998-4-9"/></g></svg>